<?xml version="1.0" standalone="no"?>
<!DOCTYPE svg PUBLIC "-//W3C//DTD SVG 20010904//EN"
 "http://www.w3.org/TR/2001/REC-SVG-20010904/DTD/svg10.dtd">
<svg version="1.0" xmlns="http://www.w3.org/2000/svg"
 width="500.000000pt" height="500.000000pt" viewBox="0 0 500.000000 500.000000"
 preserveAspectRatio="xMidYMid meet">

<g transform="translate(0.000000,500.000000) scale(0.100000,-0.100000)"
fill="#000000" stroke="none">
<path d="M2010 3665 c0 -3 88 -213 195 -468 107 -255 195 -471 195 -480 0 -10
4 -17 8 -17 5 0 15 -19 22 -42 7 -24 20 -59 30 -78 10 -19 62 -138 115 -265
54 -126 104 -245 112 -264 9 -19 42 -97 75 -175 l59 -140 -23 -18 -23 -19 27
7 c23 5 29 2 38 -20 9 -24 14 -26 71 -26 68 0 66 -6 32 82 l-18 47 28 29 c24
25 27 35 27 98 l-1 69 -25 -65 c-14 -36 -30 -71 -37 -77 -10 -10 -50 76 -197
424 -102 241 -185 442 -185 448 0 19 89 4 150 -24 76 -36 142 -95 195 -173
l41 -62 -3 79 -3 79 -50 38 c-68 51 -144 79 -240 87 -63 5 -79 9 -77 21 2 8
61 154 133 324 71 170 128 310 126 313 -3 3 -232 -531 -267 -621 -5 -14 -13
-26 -17 -26 -5 0 -59 123 -122 273 -63 149 -150 356 -194 460 l-80 187 -58 0
c-33 0 -59 -2 -59 -5z"/>
<path d="M2861 3539 c-28 -67 -50 -124 -48 -126 2 -2 27 52 56 118 28 67 50
124 48 126 -2 2 -27 -52 -56 -118z"/>
<path d="M2305 2673 c-75 -39 -186 -155 -222 -233 -82 -175 -76 -362 18 -526
40 -71 153 -175 225 -209 67 -30 169 -55 232 -55 55 0 47 15 -13 23 -85 12
-231 102 -222 138 3 12 0 16 -9 12 -25 -9 -68 55 -145 218 -37 79 -36 308 1
417 29 82 97 173 154 207 44 26 55 36 39 35 -5 -1 -30 -13 -58 -27z"/>
<path d="M2439 1993 c-13 -16 -12 -17 4 -4 9 7 17 15 17 17 0 8 -8 3 -21 -13z"/>
<path d="M2389 1943 c-13 -16 -12 -17 4 -4 9 7 17 15 17 17 0 8 -8 3 -21 -13z"/>
<path d="M2168 1658 c5 -5 16 -8 23 -6 8 3 3 7 -10 11 -17 4 -21 3 -13 -5z"/>
<path d="M2638 1663 c7 -3 16 -2 19 1 4 3 -2 6 -13 5 -11 0 -14 -3 -6 -6z"/>
</g>
</svg>
